<?xml version="1.0" encoding="UTF-8" standalone="no"?>
<svg
   enable-background="new 0 0 250 250"
   version="1.1"
   viewBox="0 0 250 250"
   xml:space="preserve"
   id="svg10"
   sodipodi:docname="logo.svg"
   inkscape:version="1.1 (c68e22c387, 2021-05-23)"
   xmlns:inkscape="http://www.inkscape.org/namespaces/inkscape"
   xmlns:sodipodi="http://sodipodi.sourceforge.net/DTD/sodipodi-0.dtd"
   xmlns="http://www.w3.org/2000/svg"
   xmlns:svg="http://www.w3.org/2000/svg"><defs
   id="defs14" /><sodipodi:namedview
   id="namedview12"
   pagecolor="#ffffff"
   bordercolor="#666666"
   borderopacity="1.0"
   inkscape:pageshadow="2"
   inkscape:pageopacity="0.0"
   inkscape:pagecheckerboard="0"
   showgrid="false"
   inkscape:zoom="1.664"
   inkscape:cx="192.90865"
   inkscape:cy="210.03606"
   inkscape:window-width="1920"
   inkscape:window-height="1017"
   inkscape:window-x="-8"
   inkscape:window-y="-8"
   inkscape:window-maximized="1"
   inkscape:current-layer="svg10" />
	<g
   transform="matrix(1,0,0,-1,0,260)"
   id="g6">
		<polygon
   class="st0"
   points="218.1 63.2 125 30 31.9 63.2 46.1 186.3 125 230 203.9 186.3"
   fill="#155fbf"
   id="polygon2" />
		<polygon
   class="st1"
   points="125 30 125 52.2 125 52.1 125 153.4 125 230 203.9 186.3 218.1 63.2"
   fill="#0f468c"
   id="polygon4" />
	</g>
	<path
   d="m164.9 59.488c0 14.423-10.035 16.753-8.7903 45.138 1.7189 39.203-32.643 102.67-48.411 89.312-20.606-17.452 47.228-101.7 0.14905-113.81-13.641-3.5095-30.687 16.281-26.953 28.68-2.9027 4.6991-6.55 5.2705-5.566 13.162 11.908-12.087 19.392-2.0329 19.54-28.112-0.1333-3.8281 4.803-9.3439 10.299-9.5629 30.197-1.2031-27.033 79.893-7.5867 111.43 4.9097 7.9617 16.272 4.7415 23.803-0.59615 13.179-9.3398 32.101-39.128 42.7-68.585-1.018-0.87479-2.1305-1.9352-3.4672-3.4334 1.3424 0.75046 2.6677 1.4726 3.9396 2.1034 0.91569-2.6061 1.7671-5.2077 2.5392-7.7892 0.18165-0.6073 0.35801-1.2092 0.52867-1.8053-1.1525-0.35344-2.4238-0.79819-3.9705-1.4566 1.4819 0.10368 2.9389 0.1897 4.3164 0.22216 0.96195-3.4698 1.7399-6.7516 2.3508-9.8589-1.207 8e-3 -2.5559-0.0384-4.232-0.20527 1.559-0.37063 3.0833-0.75106 4.4936-1.167 0.71514-3.8903 1.168-7.5067 1.3891-10.874-1.3616 0.51573-3.0527 1.0127-5.354 1.4735 1.9823-1.1621 3.9024-2.3225 5.4609-3.4841 0.15572-3.9057-2e-3 -7.4712-0.41336-10.75-1.2349 1.0117-3.0559 2.1389-5.7112 3.4363 2.0815-2.0885 4.0742-4.1539 5.3259-6.0233-0.57725-3.3308-1.4202-6.355-2.452-9.139-0.8023 1.281-1.9714 2.7958-3.7006 4.6707 1.1177-2.5549 2.1682-5.0609 2.6939-7.1846-0.88629-2.0515-1.8721-3.972-2.9217-5.7899z"
   fill="#fff"
   id="path8" />
</svg>
