<?xml version="1.0" encoding="UTF-8" standalone="no"?>
<!-- Generator: Adobe Illustrator 19.1.0, SVG Export Plug-In . SVG Version: 6.00 Build 0)  -->

<svg
   version="1.1"
   id="Layer_1"
   x="0px"
   y="0px"
   viewBox="0 0 250 250"
   style="enable-background:new 0 0 250 250;"
   xml:space="preserve"
   sodipodi:docname="logo.svg"
   inkscape:version="1.1 (c68e22c387, 2021-05-23)"
   xmlns:inkscape="http://www.inkscape.org/namespaces/inkscape"
   xmlns:sodipodi="http://sodipodi.sourceforge.net/DTD/sodipodi-0.dtd"
   xmlns="http://www.w3.org/2000/svg"
   xmlns:svg="http://www.w3.org/2000/svg"><defs
   id="defs15">
	
	
	
</defs><sodipodi:namedview
   id="namedview13"
   pagecolor="#ffffff"
   bordercolor="#666666"
   borderopacity="1.0"
   inkscape:pageshadow="2"
   inkscape:pageopacity="0.0"
   inkscape:pagecheckerboard="0"
   showgrid="false"
   inkscape:zoom="4.4645656"
   inkscape:cx="120.95242"
   inkscape:cy="126.21609"
   inkscape:window-width="1920"
   inkscape:window-height="1017"
   inkscape:window-x="-8"
   inkscape:window-y="-8"
   inkscape:window-maximized="1"
   inkscape:current-layer="Layer_1" />
<style
   type="text/css"
   id="style2">
	.st0{fill:#DD0031;}
	.st1{fill:#C3002F;}
	.st2{fill:#FFFFFF;}
</style>

<g
   aria-label="V"
   id="text2968"
   style="font-size:103.331px;line-height:1.25;stroke-width:0.999999"><path
     id="path7202"
     style="font-family:'Dancing Script';-inkscape-font-specification:'Dancing Script'"
     d="m 73.154632,282.43908 c 0,10.01793 -6.96993,11.63599 -6.10547,31.35156 1.19391,27.22897 -22.67298,71.30853 -33.625,62.0332 -14.31246,-12.1213 32.80325,-70.63597 0.10352,-79.04883 -9.47471,-2.43762 -21.31403,11.30801 -18.7207,19.91992 -1.47163,3.73055 -5.0994503,5.70988 -4.41602,11.19141 4.98996,-5.2652 11.54049,-1.64766 10.73242,-9.30078 -0.89348,-8.4619 2.13347,-19.99999 10.54297,-18.91602 20.81831,2.68345 -18.77657,55.49094 -5.26953,77.39454 3.41012,5.52998 11.30183,3.29328 16.5332,-0.41407 9.15389,-6.48713 22.29652,-27.17742 29.6582,-47.63672 -0.70707,-0.60761 -1.47981,-1.3441 -2.4082,-2.38476 0.93238,0.52125 1.85292,1.02285 2.73633,1.46094 0.63601,-1.81011 1.22735,-3.61708 1.76367,-5.41016 0.12617,-0.42181 0.24866,-0.83988 0.36719,-1.25391 -0.80051,-0.24549 -1.68349,-0.5544 -2.75781,-1.01172 1.02926,0.072 2.04128,0.13176 2.99804,0.1543 0.66814,-2.40998 1.20849,-4.68949 1.63282,-6.84766 -0.83838,0.005 -1.77525,-0.0267 -2.93946,-0.14257 1.08288,-0.25743 2.14158,-0.52166 3.1211,-0.81055 0.49671,-2.70207 0.81125,-5.21392 0.96484,-7.55273 -0.94572,0.35821 -2.12029,0.70336 -3.71875,1.02343 1.37687,-0.80713 2.71048,-1.61317 3.79297,-2.41992 0.10816,-2.71278 -0.0014,-5.18926 -0.28711,-7.4668 -0.85772,0.70267 -2.12253,1.48561 -3.9668,2.38672 1.44575,-1.45061 2.8298,-2.88517 3.69922,-4.18359 -0.40094,-2.31347 -0.98639,-4.41397 -1.70312,-6.34766 -0.55725,0.88976 -1.36929,1.9419 -2.57032,3.24414 0.77633,-1.77455 1.50595,-3.51517 1.8711,-4.99023 -0.61559,-1.42491 -1.30029,-2.75883 -2.0293,-4.02148 z" /><text
     xml:space="preserve"
     style="font-style:normal;font-weight:normal;font-size:103.456px;line-height:1.25;font-family:sans-serif;fill:#000000;fill-opacity:1;stroke:none;stroke-width:0.999999"
     x="71.180786"
     y="371.0863"
     id="text11185"><tspan
       sodipodi:role="line"
       id="tspan11183"
       x="71.180786"
       y="371.0863"
       style="font-style:normal;font-variant:normal;font-weight:normal;font-stretch:normal;font-family:'Dancing Script';-inkscape-font-specification:'Dancing Script';stroke-width:0.999999">ieiraBC</tspan></text></g><path
   id="path13568"
   style="font-size:103.331px;line-height:1.25;font-family:'Dancing Script';-inkscape-font-specification:'Dancing Script';stroke-width:0.999999"
   d="m 73.154632,282.43908 c 0,10.01793 -6.96993,11.63599 -6.10547,31.35156 1.19391,27.22897 -22.67298,71.30853 -33.625,62.0332 -14.31246,-12.1213 32.80325,-70.63597 0.10352,-79.04883 -9.47471,-2.43762 -21.31403,11.30801 -18.7207,19.91992 -1.47163,3.73055 -5.0994503,5.70988 -4.41602,11.19141 4.98996,-5.2652 11.54049,-1.64766 10.73242,-9.30078 -0.89348,-8.4619 2.13347,-19.99999 10.54297,-18.91602 20.81831,2.68345 -18.77657,55.49094 -5.26953,77.39454 3.41012,5.52998 11.30183,3.29328 16.5332,-0.41407 9.15389,-6.48713 22.29652,-27.17742 29.6582,-47.63672 -0.70707,-0.60761 -1.47981,-1.3441 -2.4082,-2.38476 0.93238,0.52125 1.85292,1.02285 2.73633,1.46094 0.63601,-1.81011 1.22735,-3.61708 1.76367,-5.41016 0.12617,-0.42181 0.24866,-0.83988 0.36719,-1.25391 -0.80051,-0.24549 -1.68349,-0.5544 -2.75781,-1.01172 1.02926,0.072 2.04128,0.13176 2.99804,0.1543 0.66814,-2.40998 1.20849,-4.68949 1.63282,-6.84766 -0.83838,0.005 -1.77525,-0.0267 -2.93946,-0.14257 1.08288,-0.25743 2.14158,-0.52166 3.1211,-0.81055 0.49671,-2.70207 0.81125,-5.21392 0.96484,-7.55273 -0.94572,0.35821 -2.12029,0.70336 -3.71875,1.02343 1.37687,-0.80713 2.71048,-1.61317 3.79297,-2.41992 0.10816,-2.71278 -0.0014,-5.18926 -0.28711,-7.4668 -0.85772,0.70267 -2.12253,1.48561 -3.9668,2.38672 1.44575,-1.45061 2.8298,-2.88517 3.69922,-4.18359 -0.40094,-2.31347 -0.98639,-4.41397 -1.70312,-6.34766 -0.55725,0.88976 -1.36929,1.9419 -2.57032,3.24414 0.77633,-1.77455 1.50595,-3.51517 1.8711,-4.99023 -0.61559,-1.42491 -1.30029,-2.75883 -2.0293,-4.02148 z" /><text
   xml:space="preserve"
   style="font-style:normal;font-weight:normal;font-size:103.456px;line-height:1.25;font-family:sans-serif;fill:#000000;fill-opacity:1;stroke:none;stroke-width:0.999999"
   x="71.180786"
   y="371.0863"
   id="text13572"><tspan
     sodipodi:role="line"
     id="tspan13570"
     x="71.180786"
     y="371.0863"
     style="font-style:normal;font-variant:normal;font-weight:normal;font-stretch:normal;font-family:'Dancing Script';-inkscape-font-specification:'Dancing Script';stroke-width:0.999999">ieiraBC</tspan></text><g
   id="g24501"
   transform="matrix(1,0,0,-1,0,260)"><polygon
     class="st0"
     points="218.1,63.2 125,30 31.9,63.2 46.1,186.3 125,230 203.9,186.3 "
     id="polygon4"
     style="fill:#155fbf;fill-opacity:1" /><polygon
     class="st1"
     points="125,30 125,52.2 125,52.1 125,153.4 125,230 203.9,186.3 218.1,63.2 "
     id="polygon6"
     style="fill:#0f468c;fill-opacity:1" /></g><rect
   style="fill:#155fbf;fill-opacity:1;stroke:none"
   id="rect13645"
   width="23.742512"
   height="23.742512"
   x="-197.55562"
   y="102.58557" /><rect
   style="fill:#0f468c;fill-opacity:1;stroke:none"
   id="rect13727"
   width="23.742512"
   height="23.742512"
   x="-197.55562"
   y="126.32808" /><rect
   style="fill:#126da6;fill-opacity:1;stroke:none"
   id="rect13729"
   width="23.742512"
   height="23.742512"
   x="-197.55562"
   y="150.07059" /><rect
   style="fill:#9cc1d9;fill-opacity:1;stroke:none"
   id="rect13731"
   width="23.742512"
   height="23.742512"
   x="-197.55562"
   y="173.8131" /><rect
   style="fill:#18d9d9;fill-opacity:1;stroke:none"
   id="rect13733"
   width="23.742512"
   height="23.742512"
   x="-197.55562"
   y="197.5556" /><path
   id="path13579"
   style="font-size:103.331px;line-height:1.25;font-family:'Dancing Script';-inkscape-font-specification:'Dancing Script';fill:#ffffff;stroke-width:0.999997"
   d="m 164.90477,59.487906 c 0,14.42322 -10.0349,16.752807 -8.79029,45.138124 1.71892,39.20265 -32.64321,102.66579 -48.41129,89.31171 C 87.096996,176.48622 154.93138,92.240269 107.85224,80.127927 94.211139,76.618386 77.16559,96.408538 80.899316,108.80745 c -2.902719,4.69907 -6.549979,5.27046 -5.566016,13.16244 11.908318,-12.08748 19.392082,-2.03292 19.540027,-28.111679 -0.133299,-3.828091 4.803021,-9.343937 10.299083,-9.562911 30.19698,-1.203106 -27.033367,79.89258 -7.586735,111.42807 4.909665,7.96173 16.271675,4.74146 23.803495,-0.59615 13.17923,-9.33979 32.1012,-39.12844 42.70011,-68.58453 -1.01798,-0.87479 -2.13053,-1.93516 -3.46717,-3.43343 1.34237,0.75046 2.66771,1.47264 3.9396,2.10338 0.91569,-2.60609 1.76706,-5.20766 2.53922,-7.78923 0.18165,-0.6073 0.35801,-1.20921 0.52867,-1.80531 -1.15254,-0.35344 -2.42379,-0.79819 -3.97054,-1.45661 1.48187,0.10368 2.93892,0.1897 4.3164,0.22216 0.96195,-3.46975 1.73992,-6.75165 2.35083,-9.85886 -1.20703,0.008 -2.5559,-0.0384 -4.23204,-0.20527 1.55905,-0.37063 3.08331,-0.75106 4.49356,-1.16697 0.71514,-3.890292 1.16799,-7.506704 1.38912,-10.873985 -1.36159,0.515731 -3.05266,1.012657 -5.35403,1.473476 1.98234,-1.162059 3.90238,-2.322547 5.46089,-3.484058 0.15572,-3.905706 -0.002,-7.471195 -0.41336,-10.750262 -1.23489,1.011663 -3.05589,2.138894 -5.71116,3.436259 2.0815,-2.088503 4.07418,-4.153897 5.32591,-6.023285 -0.57725,-3.330797 -1.42015,-6.354972 -2.45205,-9.138984 -0.8023,1.281024 -1.97142,2.795832 -3.70059,4.67072 1.11771,-2.554892 2.16818,-5.060933 2.6939,-7.184637 -0.88629,-2.051501 -1.87209,-3.972 -2.92167,-5.789888 z"
   sodipodi:nodetypes="cssscccssscccscccccccccccccccc" /></svg>
