<svg enable-background="new 0 0 250 250" version="1.1" viewBox="0 0 250 250" xml:space="preserve"
	xmlns="http://www.w3.org/2000/svg">
	
	<defs>
		<style>
			
			@keyframes move_foot { to { transform: translateY(-10px); }}

			#foot_left { animation: move_foot .5s linear alternate infinite; }
			#foot_right { animation: move_foot .5s linear alternate infinite .25s; }

			@keyframes move_eyes {
				from { transform: translateX(5px); }
				50% { transform: translateX(-3px); }
				to { transform: translateX(5px); }
			}

			#eyes { animation: move_eyes 1.5s linear infinite; }

		</style>
	</defs>

	<path fill="#f5f5f5"
		d="m116.62 203.75c-5.521-0.59723-11.821-2.5586-16.472-5.1276-3.1753-1.7542-7.2236-4.7559-7.7561-5.7509-0.222-0.4148 0.19546-1.0457 1.9078-2.8831 2.1955-2.3559 4.1123-5.5159 4.0992-6.7582-0.0113-1.0783-1.1104-3.1869-2.4164-4.6358-1.1363-1.2606-4.2938-3.9817-8.9893-7.7465-5.5363-4.4391-9.9787-8.3262-12.134-10.617-2.5711-2.7331-5.1115-6.6583-6.1657-9.5268-2.3595-6.4203-2.1619-14.482 0.54486-22.23 3.7055-10.606 6.5782-16.289 13.355-26.42 6.1011-9.1211 8.9895-15.333 11.537-24.81 1.368-5.0899 3.9553-16.725 3.9578-17.799 2e-3 -0.91854 0.63211-0.97865 1.304-0.12444 0.35409 0.45016 0.81163 0.82239 1.0168 0.82718 0.20513 0.0048 0.72933 0.49978 1.1649 1.1 0.43555 0.60018 0.96557 1.0952 1.1778 1.1 0.21225 0.0048 0.84736 0.62086 1.4114 1.369 2.9407 3.901 7.5765 5.5942 14.199 5.1861 7.1529-0.44074 13.685-3.3759 21.857-9.8207 1.3066-1.0306 2.4232-1.9983 2.4813-2.1506 0.0581-0.15226 0.27189-0.2793 0.47515-0.28231 0.20325-3e-3 0.70524-0.35937 1.1155-0.79191 1.4034-1.4795 1.5258-1.2651 3.169 5.5488 2.1873 9.0709 9.9659 32.292 11.99 35.794 0.45315 0.78399 1.4139 2.2094 2.135 3.1676 5.1877 6.8938 9.7963 16.64 11.872 25.105 1.5048 6.1384 1.9644 9.4856 2.1498 15.655 0.19199 6.3897-0.33813 10.796-1.5358 12.765l-0.63515 1.0444-2.2748-0.23532c-3.2448-0.33566-4.5572-0.22612-6.3064 0.52637-3.0388 1.3072-4.4357 3.89-4.8499 8.9666-0.33103 4.0574-2.0108 6.9214-4.9339 8.4127-1.765 0.90047-5.2734 3.9935-6.2171 5.4811-0.98854 1.5583-1.1036 3.6332-0.28776 5.1914 0.29651 0.56637 1.6757 2.2364 3.065 3.7113s2.5258 2.8395 2.5258 3.0325c0 0.57675-3.4679 4.0335-5.6895 5.6713-4.4738 3.298-10.698 5.9664-17.067 7.3174-3.0083 0.63805-11.69 1.0706-14.78 0.73642z" />
	<path fill="#f5f5f5"
		d="m101.93 17.255a12.949 8.3926 79.989 0 0-1.0137 0.08203 12.949 8.3926 79.989 0 0-6.0137 14.211 12.949 8.3926 79.989 0 0 4.8125 9.3438c3.4395-3.0322 7.3552-5.4813 11.936-7.1191a12.949 8.3926 79.989 0 0-0.21875-5.1426 12.949 8.3926 79.989 0 0-9.502-11.375z" />
	<path fill="#f5f5f5"
		d="m136.35 14.739a11.911 16.118 15.9 0 0-13.357 14.613 11.911 16.118 15.9 0 0-0.28516 4.9043c7.3098 1.2234 13.767 3.8098 19.891 6.9316a11.911 16.118 15.9 0 0 4.2637-9.4141 11.911 16.118 15.9 0 0-9.0527-17.004 11.911 16.118 15.9 0 0-1.459-0.03125zm-12.648 24.402a11.911 16.118 15.9 0 0 1.4356 2.8359c-0.48741-0.94209-0.96794-1.8919-1.4356-2.8359z" />
	
	<g id="eyes" fill="#0f468c">
		<ellipse id="eye_right" transform="matrix(.99489 .10096 -.1795 .98376 0 0)" cx="137.98" cy="18.709" rx="7.1321"
			ry="9.5462" />
		<ellipse id="eye_left" transform="rotate(-10.011)" cx="96.623" cy="49.408" rx="5.2856" ry="8.1549" />
	</g>

	<path
		d="m113.02 66.645c-2.0908-0.47587-4.5549-1.7091-7.0617-3.5344-0.80734-0.58782-1.5776-1.0688-1.7117-1.0688-0.68852 0-3.6447-3.909-3.2438-4.2893 0.0484-0.04595 1.5135 0.60964 3.2557 1.4569 5.774 2.8079 11.59 3.5257 17.422 2.1502 3.6278-0.85572 8.8667-3.5494 12.962-6.6645 1.9025-1.4472 3.817-2.8512 4.2545-3.12s0.85275-0.66077 0.92281-0.87093c0.26682-0.80046-0.85648-0.70139-2.1847 0.19269-9.8809 6.6512-15.566 8.9362-22.197 8.9223-5.0214-0.01052-10.108-1.7079-15.139-5.0521-3.474-2.3092-4.8799-4.2252-4.6758-6.3722 0.1785-1.8782 1.5603-3.8933 3.8611-5.6304 0.97076-0.73293 1.765-1.524 1.765-1.7579s0.42721-0.51073 0.94936-0.61516c0.52214-0.10443 1.6897-0.77508 2.5946-1.4903 3.5133-2.7771 7.0814-4.0959 11.661-4.31 3.6328-0.16983 5.3475 0.16532 10.295 2.0122 1.3938 0.5203 4.3872 1.6274 6.652 2.4602 9.471 3.4825 11.477 4.4945 12.383 6.2471 0.65168 1.2602 0.47149 3.4503-0.50351 6.1199-0.38177 1.0453-0.7045 2.0674-0.71717 2.2713-0.0127 0.20388-0.39129 0.55788-0.84136 0.78668-0.45006 0.2288-1.1034 0.68609-1.4518 1.0162-0.34844 0.33011-2.7004 1.9519-5.2266 3.6039-5.0035 3.2721-11.099 6.3837-14.096 7.1961-2.7168 0.73639-7.4718 0.89952-9.9276 0.34058zm-1.9874-27.848c1.4259-1.4529 1.4132-1.8335-0.0518-1.5534-0.98335 0.18798-2.1292 1.4532-2.1292 2.351 0 0.95235 0.72309 0.68791 2.181-0.79762zm11.123 0.77257c0-0.84218-1.2419-2.131-2.2771-2.3631-1.3024-0.29202-1.2824 0.18079 0.0697 1.6451 1.32 1.4295 2.2074 1.7182 2.2074 0.71807z"
		fill="#f5b821" />

	<g id="foots" fill="#f5b821">
		<path id="foot_left"
			d="m54.688 152.65c-3.6147 0-5.5017 1.3519-7.9414 5.6875-1.9442 3.4549-3.8196 5.7579-6.0566 7.4394-3.3148 2.4918-6.1478 3.6275-11.918 4.7793-5.5793 1.1137-7.586 2.2621-8.8242 5.0488-0.49828 1.1215-0.5655 2.4506-0.59375 11.875-0.03462 11.55-0.29042 14.072-1.9023 18.689-1.4804 4.2405-0.87739 7.2326 1.8828 9.3379 1.8186 1.3871 7.4234 3.2516 15.764 5.2402 10.219 2.4366 20.74 5.0172 21.967 5.3887 4.6031 1.3938 8.9155 2.8692 12.512 4.2832 2.352 0.92475 5.2746 1.8937 6.4941 2.1524s3.9337 0.48189 6.0312 0.49609c6.4036 0.0434 9.6402-1.1625 13.455-5.0137 4.2337-4.274 6.4034-9.9196 5.7051-14.844-0.57823-4.0775-1.6272-5.9855-6.6973-12.174-2.6242-3.203-7.462-9.6218-9.8789-13.107-0.8362-1.2059-3.9564-5.7558-6.9336-10.111-10.674-15.616-14.597-20.914-16.861-22.77-2.1356-1.7499-3.8153-2.3984-6.2031-2.3984z" />
		<path id="foot_right"
			d="m169.27 156.86c-0.54205-5e-3 -0.96579 0.0529-1.4121 0.14648-0.92618 0.19426-2.1106 0.65748-2.6328 1.0293-1.0639 0.75759-2.332 3.0416-2.8359 5.1094-0.18374 0.75395-0.47298 6.2172-0.64258 12.141-0.4368 15.256-1.6522 26.249-3.832 34.645-2.0095 7.7395-0.77517 15.719 3.0957 20.004 1.9957 2.209 5.99 4.12 10.205 4.8828 7.2174 1.3062 12.741-0.15953 18.377-4.877 1.3614-1.1394 3.6738-3.0815 5.1387-4.3164 4.9485-4.1717 13.313-10.275 21.947-16.014 12.488-8.2999 15.178-10.371 16.166-12.453 1.557-3.2811-0.34411-6.2882-8.8144-13.945-5.2886-4.7808-7.3024-8.4738-8.7402-16.02-1.0317-5.4145-2.4199-7.444-5.8574-8.5645-2.1553-0.70253-6.531-0.47364-10.453 0.54688-3.1828 0.82818-3.9368 0.90336-8.7109 0.88086-4.4883-0.0212-5.7631-0.14648-9.0273-0.88672-7.6431-1.7332-10.345-2.2943-11.971-2.3086z" />
	</g>
</svg>